HIERARCHY
ROOT Hips
{
	OFFSET 0.000000 0.000000 0.000000
	CHANNELS 6 Xposition Yposition Zposition Zrotation Yrotation Xrotation 
	JOINT LHipJoint
	{
		OFFSET 0.000000 0.000000 0.000000
		CHANNELS 3 Zrotation Yrotation Xrotation
		JOINT LeftUpLeg
		{
			OFFSET 1.363060 -1.794630 0.839290
			CHANNELS 3 Zrotation Yrotation Xrotation
			JOINT LeftLeg
			{
				OFFSET 2.448110 -6.726130 0.000000
				CHANNELS 3 Zrotation Yrotation Xrotation
				JOINT LeftFoot
				{
					OFFSET 2.562200 -7.039590 0.000000
					CHANNELS 3 Zrotation Yrotation Xrotation
					JOINT LeftToeBase
					{
						OFFSET 0.157640 -0.433110 2.322550
						CHANNELS 3 Zrotation Yrotation Xrotation
						End Site
						{
							OFFSET 0.000000 0.000000 0.000000
						}
					}
				}
			}
		}
	}
	JOINT RHipJoint
	{
		OFFSET 0.000000 0.000000 0.000000
		CHANNELS 3 Zrotation Yrotation Xrotation
		JOINT RightUpLeg
		{
			OFFSET -1.305520 -1.794630 0.839290
			CHANNELS 3 Zrotation Yrotation Xrotation
			JOINT RightLeg
			{
				OFFSET -2.542530 -6.985550 0.000000
				CHANNELS 3 Zrotation Yrotation Xrotation
				JOINT RightFoot
				{
					OFFSET -2.568260 -7.056230 0.000000
					CHANNELS 3 Zrotation Yrotation Xrotation
					JOINT RightToeBase
					{
						OFFSET -0.164730 -0.452590 2.363150
						CHANNELS 3 Zrotation Yrotation Xrotation
						End Site
						{
							OFFSET 0.000000 0.000000 0.000000
						}
					}
				}
			}
		}
	}
}
MOTION
Frames: 28
Frame Time: 0.008333
3.547005 17.209131 0.908013 -177.392264 -78.892653 -172.670412 -11.690715 1.855142 -0.452203 -3.446104 22.650169 -13.642240 -2.647292 -1.010094 -1.840379 0.644967 5.475618 2.484872 1.035300 -0.000000 -36.311800 9.304241 -1.550090 2.990975 2.436025 0.613762 -10.593432 2.531996 1.471895 -1.259666 0.199073 -0.631996 0.406799 -0.816700 0.000000 -43.022100
3.544006 17.209548 0.909456 -177.289089 -78.683146 -172.770885 -11.698565 1.871883 -0.442199 -3.439134 22.780687 -13.684178 -2.651525 -1.010071 -1.789634 0.652911 5.530573 2.436847 1.038600 -0.000000 -36.298000 9.294228 -1.562833 3.043153 2.447180 0.701116 -10.624936 2.547597 1.484754 -1.327825 0.212223 -0.501074 0.487180 -0.787600 0.000000 -43.019100
3.541710 17.209952 0.910985 -177.196391 -78.498420 -172.871703 -11.706261 1.891336 -0.424910 -3.431956 22.893487 -13.725907 -2.655027 -1.009975 -1.736543 0.659961 5.578448 2.391709 1.041200 0.000000 -36.284700 9.284393 -1.577353 3.095654 2.458629 0.777548 -10.649767 2.561895 1.497469 -1.389644 0.224531 -0.387590 0.562481 -0.763000 0.000000 -43.014400
3.540320 17.210325 0.912553 -177.113987 -78.347338 -172.973631 -11.713489 1.913484 -0.399947 -3.424166 22.982026 -13.765320 -2.657415 -1.009611 -1.683712 0.665885 5.617277 2.351671 1.042800 -0.000000 -36.272600 9.275087 -1.592886 3.146528 2.470413 0.840128 -10.665717 2.574273 1.509785 -1.442462 0.235034 -0.298217 0.629373 -0.744100 0.000000 -43.007400
3.540017 17.210632 0.914189 -177.036822 -78.236534 -173.082149 -11.719836 1.938129 -0.367670 -3.415400 23.044619 -13.804629 -2.658920 -1.008451 -1.629632 0.669984 5.640089 2.316416 1.042300 0.000000 -36.263900 9.266594 -1.608388 3.194010 2.483458 0.886908 -10.671192 2.584294 1.521688 -1.484658 0.243268 -0.239804 0.685639 -0.732600 -0.000000 -42.996800
3.540808 17.210856 0.915788 -176.972417 -78.171422 -173.187756 -11.724935 1.965360 -0.327850 -3.406182 23.069850 -13.835826 -2.658445 -1.006650 -1.584923 0.672911 5.653229 2.291286 1.041500 0.000001 -36.258200 9.259586 -1.622440 3.235487 2.495457 0.916281 -10.664425 2.591126 1.532675 -1.513568 0.248647 -0.217010 0.728565 -0.729500 0.000001 -42.983600
3.542795 17.211015 0.917370 -176.912894 -78.154018 -173.296238 -11.728386 1.994700 -0.281977 -3.396695 23.060876 -13.863417 -2.656627 -1.003621 -1.547986 0.673960 5.649382 2.275808 1.039000 -0.000000 -36.257200 9.254250 -1.633581 3.269593 2.507846 0.928490 -10.646392 2.594685 1.543024 -1.529470 0.250608 -0.233936 0.757626 -0.735900 0.000000 -42.966600
3.545928 17.211078 0.918978 -176.855182 -78.183973 -173.406935 -11.729815 2.025654 -0.231433 -3.387735 23.016585 -13.887538 -2.653526 -0.999248 -1.523071 0.673097 5.627869 2.271711 1.034900 0.000000 -36.261900 9.250948 -1.640363 3.294696 2.520517 0.924348 -10.618018 2.594825 1.552844 -1.533394 0.249196 -0.292369 0.772979 -0.751999 -0.000000 -42.945200
3.550105 17.211066 0.920626 -176.792916 -78.258661 -173.521032 -11.729020 2.057432 -0.178521 -3.379909 22.941183 -13.910459 -2.649669 -0.993415 -1.512529 0.670083 5.586268 2.280013 1.028900 -0.000000 -36.273300 9.249855 -1.641558 3.309690 2.534127 0.905719 -10.581812 2.591696 1.562383 -1.527324 0.244208 -0.392039 0.776090 -0.777901 -0.000000 -42.919601
3.555277 17.211013 0.922372 -176.721073 -78.372177 -173.640009 -11.725869 2.089071 -0.125816 -3.374065 22.839337 -13.933673 -2.645463 -0.986123 -1.519333 0.664870 5.524025 2.301924 1.021000 0.000000 -36.291499 9.251099 -1.636029 3.313594 2.549012 0.875018 -10.540724 2.585573 1.571808 -1.513828 0.235783 -0.530563 0.769626 -0.812900 -0.000000 -42.889600
3.561157 17.210944 0.924288 -176.633010 -78.516964 -173.763793 -11.720505 2.119700 -0.075984 -3.370768 22.717900 -13.958942 -2.641504 -0.977611 -1.546543 0.657453 5.441149 2.338265 1.011099 -0.000000 -36.317000 9.254614 -1.623187 3.306092 2.565783 0.835481 -10.498255 2.577025 1.581492 -1.496725 0.224605 -0.702875 0.756840 -0.856100 0.000000 -42.855900
3.567515 17.211029 0.926472 -176.525580 -78.682230 -173.891783 -11.713247 2.148911 -0.030888 -3.371746 22.585263 -13.988323 -2.638324 -0.968049 -1.596780 0.647970 5.339093 2.391123 0.999600 -0.000001 -36.346400 9.260202 -1.602791 3.287850 2.584412 0.789871 -10.458694 2.566743 1.591761 -1.480051 0.211020 -0.902339 0.743798 -0.905800 0.000000 -42.818300
3.574188 17.211103 0.929044 -176.382653 -78.856692 -174.036199 -11.704400 2.175673 0.006453 -3.374490 22.451812 -14.022819 -2.636440 -0.957643 -1.669438 0.636448 5.217445 2.457169 0.985900 0.000000 -36.383900 9.267450 -1.574759 3.259200 2.607368 0.744058 -10.424755 2.555576 1.602937 -1.465434 0.195684 -1.122869 0.731222 -0.960600 -0.000000 -42.779600
3.581057 17.211268 0.932074 -176.202276 -79.028792 -174.198529 -11.694255 2.199910 0.035532 -3.379216 22.322335 -14.061400 -2.635652 -0.946784 -1.767758 0.623634 5.082867 2.536981 0.971000 -0.000000 -36.427600 9.276128 -1.539394 3.221399 2.634680 0.700960 -10.399493 2.544294 1.615210 -1.455644 0.179270 -1.356194 0.723913 -1.018800 0.000000 -42.742200
3.587666 17.211682 0.935625 -175.987196 -79.184716 -174.373451 -11.683494 2.222617 0.056391 -3.387696 22.205963 -14.103612 -2.636271 -0.935648 -1.892662 0.609933 4.939202 2.632253 0.955500 0.000000 -36.472400 9.285915 -1.497555 3.176776 2.665466 0.662200 -10.386055 2.533838 1.628900 -1.453459 0.162695 -1.591848 0.727768 -1.078200 -0.000000 -42.707400
3.594029 17.212389 0.939765 -175.737357 -79.313835 -174.564898 -11.672365 2.243834 0.067875 -3.399387 22.113420 -14.150105 -2.638669 -0.924080 -2.039745 0.595410 4.786603 2.740508 0.938900 -0.000000 -36.515000 9.296621 -1.449903 3.126887 2.700075 0.630797 -10.385606 2.524806 1.643853 -1.458267 0.146797 -1.822794 0.745169 -1.137200 0.000000 -42.677400
3.599955 17.213161 0.944522 -175.443841 -79.408773 -174.779084 -11.660606 2.263810 0.073373 -3.410913 22.029648 -14.193963 -2.640337 -0.913223 -2.217611 0.582626 4.647315 2.859659 0.925000 -0.000000 -36.561600 9.308152 -1.396952 3.072906 2.739940 0.609299 -10.401741 2.517973 1.660331 -1.469568 0.131889 -2.043207 0.773692 -1.194500 -0.000000 -42.658401
3.605250 17.214261 0.949860 -175.120604 -79.461326 -175.007444 -11.648882 2.283319 0.069356 -3.425499 21.985264 -14.244170 -2.644476 -0.901664 -2.406105 0.569054 4.498595 2.985840 0.909000 -0.000001 -36.600300 9.320475 -1.340179 3.017028 2.783424 0.597268 -10.432591 2.513616 1.677856 -1.484914 0.119107 -2.246144 0.817453 -1.248800 -0.000000 -42.649100
3.609879 17.215490 0.955739 -174.769321 -79.469773 -175.247854 -11.636619 2.302826 0.061558 -3.440398 21.952909 -14.291642 -2.647400 -0.890728 -2.617006 0.558073 4.370454 3.118420 0.896400 0.000000 -36.636300 9.333684 -1.279853 2.959938 2.830969 0.594686 -10.481987 2.512152 1.696524 -1.502845 0.108565 -2.428441 0.872714 -1.299401 0.000000 -42.654800
3.613735 17.216833 0.962055 -174.401445 -79.433384 -175.490779 -11.623755 2.323315 0.053582 -3.455416 21.923116 -14.333908 -2.647777 -0.880708 -2.850280 0.550884 4.273772 3.255921 0.889200 -0.000000 -36.668800 9.347808 -1.216851 2.903026 2.881533 0.599524 -10.550444 2.513759 1.716235 -1.521365 0.100897 -2.586935 0.937736 -1.345600 -0.000000 -42.677400
3.616824 17.218430 0.968733 -174.032094 -79.352532 -175.731391 -11.610822 2.345860 0.042489 -3.473302 21.928935 -14.383011 -2.649654 -0.869580 -3.076844 0.543828 4.174827 3.390336 0.880300 0.000000 -36.688200 9.362742 -1.153008 2.849004 2.933783 0.609961 -10.632091 2.518183 1.736386 -1.535400 0.096584 -2.720057 1.012168 -1.387299 0.000000 -42.713701
3.619019 17.220105 0.975620 -173.671579 -79.234094 -175.960476 -11.597490 2.372356 0.039490 -3.491884 21.929296 -14.427500 -2.648180 -0.859166 -3.313779 0.540986 4.111029 3.523666 0.877300 -0.000000 -36.701700 9.378173 -1.089587 2.800920 2.986990 0.622453 -10.729218 2.525536 1.757343 -1.545354 0.095555 -2.827715 1.092065 -1.424300 -0.000000 -42.766500
3.620359 17.221872 0.982597 -173.336692 -79.086833 -176.172097 -11.584383 2.404519 0.048557 -3.512487 21.928498 -14.469603 -2.644261 -0.849190 -3.549598 0.541328 4.073780 3.652555 0.878500 -0.000000 -36.706500 9.393469 -1.029385 2.763503 3.039201 0.633077 -10.836641 2.535364 1.778767 -1.549422 0.097942 -2.910496 1.175602 -1.456500 0.000000 -42.833300
3.620597 17.223736 0.989557 -173.035356 -78.924719 -176.359391 -11.572094 2.443366 0.077279 -3.535588 21.905995 -14.506724 -2.636327 -0.841200 -3.788531 0.546182 4.077113 3.777902 0.887100 0.000000 -36.705100 9.407606 -0.975603 2.741779 3.088776 0.638935 -10.954278 2.547274 1.800706 -1.549401 0.103216 -2.970837 1.260833 -1.484301 0.000000 -42.912300
3.620163 17.225727 0.996454 -172.777846 -78.760833 -176.527961 -11.561801 2.487199 0.116957 -3.562877 21.905233 -14.550113 -2.630724 -0.833668 -3.995968 0.549886 4.071368 3.889830 0.892900 0.000000 -36.691599 9.420004 -0.931292 2.736653 3.134063 0.635999 -11.068977 2.560203 1.821788 -1.543770 0.111400 -3.009035 1.347061 -1.507400 -0.000001 -42.997900
3.618528 17.227817 1.003126 -172.561039 -78.610837 -176.657220 -11.553322 2.533123 0.175304 -3.595145 21.862678 -14.594608 -2.621541 -0.830838 -4.204041 0.558071 4.111177 3.997771 0.908000 -0.000000 -36.675000 9.429595 -0.896911 2.747413 3.174173 0.626253 -11.196991 2.574051 1.842832 -1.541285 0.120873 -3.031634 1.433035 -1.526800 -0.000000 -43.089200
3.616181 17.230017 1.009605 -172.385572 -78.477835 -176.751332 -11.547130 2.576811 0.236017 -3.632520 21.820813 -14.649012 -2.614521 -0.830689 -4.384287 0.565599 4.150875 4.093640 0.922600 -0.000000 -36.651600 9.436838 -0.871554 2.766540 3.208201 0.608890 -11.327457 2.587976 1.862408 -1.541383 0.131495 -3.038414 1.519056 -1.541900 0.000000 -43.181100
3.612921 17.232330 1.015851 -172.247783 -78.360142 -176.800236 -11.542973 2.615950 0.295561 -3.675858 21.769563 -14.715419 -2.608863 -0.833523 -4.541463 0.573400 4.198851 4.177809 0.938700 0.000000 -36.623800 9.441797 -0.853085 2.789357 3.235586 0.587658 -11.464704 2.602026 1.880992 -1.548878 0.142539 -3.032269 1.605596 -1.553000 -0.000000 -43.271400
